<svg width="429" height="408" viewBox="0 0 429 408" fill="none" xmlns="http://www.w3.org/2000/svg">
<g clip-path="url(#clip0_2240_23595)">
<path d="M428.266 399.822C428.266 397.971 426.366 396.47 424.023 396.47H422.811C420.468 396.47 418.568 394.969 418.568 393.118C418.568 391.267 420.468 389.766 422.811 389.766H424.023C426.366 389.766 428.266 388.265 428.266 386.414V381.626C428.266 379.775 426.366 378.274 424.023 378.274H422.811C420.468 378.274 418.568 376.773 418.568 374.922C418.568 373.071 420.468 371.57 422.811 371.57H424.023H428.266V368.218V363.43V360.078H424.023H422.811C420.468 360.078 418.568 358.577 418.568 356.726C418.568 354.875 420.468 353.374 422.811 353.374H424.023C426.366 353.374 428.266 351.873 428.266 350.022V345.234C428.266 343.383 426.366 341.882 424.023 341.882H422.811C420.468 341.882 418.568 340.381 418.568 338.53C418.568 337.592 419.058 336.744 419.844 336.136H428.267V331.827V327.996V323.686H419.844C419.057 323.078 418.568 322.23 418.568 321.292C418.568 319.441 420.468 317.94 422.811 317.94H424.023C426.366 317.94 428.266 316.439 428.266 314.588V309.8C428.266 307.949 426.366 306.448 424.023 306.448H422.811C420.468 306.448 418.568 304.947 418.568 303.096C418.568 301.245 420.468 299.744 422.811 299.744H424.023H428.266V296.392V291.604V288.252H424.023H422.811C420.468 288.252 418.568 286.751 418.568 284.9C418.568 283.049 420.468 281.548 422.811 281.548H424.023C426.366 281.548 428.266 280.047 428.266 278.196V273.408C428.266 271.557 426.366 270.056 424.023 270.056H422.811C420.468 270.056 418.568 268.555 418.568 266.704C418.568 264.853 420.468 263.352 422.811 263.352H424.023H428.266V260V255.212V251.86H424.023H422.811C420.468 251.86 418.568 250.359 418.568 248.508C418.568 246.657 420.468 245.156 422.811 245.156H424.023C426.366 245.156 428.266 243.655 428.266 241.804V237.016C428.266 235.165 426.366 233.664 424.023 233.664H422.811C420.468 233.664 418.568 232.163 418.568 230.312C418.568 229.373 419.058 228.526 419.844 227.918H428.266V223.609V219.778V215.469H419.843C419.056 214.861 418.567 214.013 418.567 213.075C418.567 211.224 420.467 209.723 422.81 209.723H424.022C426.365 209.723 428.265 208.222 428.265 206.371V201.583C428.265 199.732 426.365 198.231 424.022 198.231H422.81C420.467 198.231 418.567 196.73 418.567 194.879C418.567 193.941 419.057 193.093 419.843 192.485H428.266V188.176V184.345V180.036H419.843C419.056 179.428 418.567 178.58 418.567 177.642C418.567 175.791 420.467 174.29 422.81 174.29H424.022C426.365 174.29 428.265 172.789 428.265 170.938V166.15C428.265 164.299 426.365 162.798 424.022 162.798H422.81C420.467 162.798 418.567 161.297 418.567 159.446C418.567 157.595 420.467 156.094 422.81 156.094H424.022H428.265V152.742V147.954V144.602H424.022H422.81C420.467 144.602 418.567 143.101 418.567 141.25C418.567 139.399 420.467 137.898 422.81 137.898H424.022C426.365 137.898 428.265 136.397 428.265 134.546V129.758C428.265 127.907 426.365 126.406 424.022 126.406H422.81C420.467 126.406 418.567 124.905 418.567 123.054C418.567 122.116 419.057 121.268 419.843 120.66H428.266V116.35V112.519V108.21H419.844C419.057 107.601 418.568 106.754 418.568 105.816C418.568 103.965 420.468 102.464 422.811 102.464H424.023C426.366 102.464 428.266 100.963 428.266 99.112V94.324C428.266 92.473 426.366 90.972 424.023 90.972H422.811C420.468 90.972 418.568 89.471 418.568 87.62C418.568 85.769 420.468 84.268 422.811 84.268H424.023H428.266V80.916V76.128V72.776H424.023H422.811C420.468 72.776 418.568 71.275 418.568 69.424C418.568 67.573 420.468 66.072 422.811 66.072H424.023C426.366 66.072 428.266 64.571 428.266 62.72V57.932C428.266 56.081 426.366 54.58 424.023 54.58H422.811C420.468 54.58 418.568 53.079 418.568 51.228C418.568 49.377 420.468 47.876 422.811 47.876H424.023H428.266V44.524V39.736V36.41H422.04C419.871 36.41 418.113 34.652 418.113 32.483C418.113 30.314 419.871 28.556 422.04 28.556H427.196C427.86 27.964 428.266 27.189 428.266 26.336V23.035V21.548V17.62H422.04C419.871 17.62 418.113 15.862 418.113 13.693C418.113 11.524 419.871 9.766 422.04 9.766H428.266V8.14V0H420.126H406.719H405.232H401.931C400.08 0 398.579 1.9 398.579 4.243V5.455C398.579 7.455 397.485 9.127 396.013 9.576H395.532V9.679C395.431 9.691 395.33 9.699 395.226 9.699C393.375 9.699 391.874 7.799 391.874 5.456V4.243V0H388.522H383.734H380.382V4.243V5.455C380.382 7.798 378.881 9.698 377.03 9.698C375.179 9.698 373.678 7.798 373.678 5.455V4.243C373.68 1.9 372.179 0 370.328 0H365.54C363.689 0 362.188 1.9 362.188 4.243V5.455C362.188 7.798 360.687 9.698 358.836 9.698C357.897 9.698 357.05 9.208 356.442 8.422V0H352.132H348.301H343.992V8.423C343.384 9.21 342.536 9.699 341.598 9.699C339.747 9.699 338.246 7.799 338.246 5.456V4.243C338.246 1.9 336.745 0 334.894 0H330.106C328.255 0 326.754 1.9 326.754 4.243V5.455C326.754 7.798 325.253 9.698 323.402 9.698C321.551 9.698 320.05 7.798 320.05 5.455V4.243V0H316.698H311.91H308.558V4.243V5.455C308.558 7.798 307.057 9.698 305.206 9.698C303.355 9.698 301.854 7.798 301.854 5.455V4.243C301.854 1.9 300.353 0 298.502 0H293.714C291.863 0 290.362 1.9 290.362 4.243V5.455C290.362 7.798 288.861 9.698 287.01 9.698C285.159 9.698 283.658 7.798 283.658 5.455V4.243V0H280.306H275.518H272.166V4.243V5.455C272.166 7.798 270.665 9.698 268.814 9.698C266.963 9.698 265.462 7.798 265.462 5.455V4.243C265.462 1.9 263.961 0 262.11 0H257.322C255.471 0 253.97 1.9 253.97 4.243V5.455C253.97 7.798 252.469 9.698 250.618 9.698C249.68 9.698 248.832 9.208 248.224 8.422V0H243.915H240.084H235.775V8.423C235.167 9.21 234.319 9.699 233.381 9.699C231.53 9.699 230.029 7.799 230.029 5.456V4.243C230.031 1.9 228.53 0 226.679 0H221.891C220.04 0 218.539 1.9 218.539 4.243V5.455C218.539 7.798 217.038 9.698 215.187 9.698C214.249 9.698 213.401 9.208 212.793 8.422V0H208.484H204.653H200.343V8.423C199.735 9.21 198.887 9.699 197.949 9.699C196.098 9.699 194.597 7.799 194.597 5.456V4.243C194.597 1.9 193.096 0 191.245 0H186.457C184.606 0 183.105 1.9 183.105 4.243V5.455C183.105 7.798 181.604 9.698 179.753 9.698C177.902 9.698 176.401 7.798 176.401 5.455V4.243V0H173.049H168.261H164.909V4.243V5.455C164.909 7.798 163.408 9.698 161.557 9.698C159.706 9.698 158.205 7.798 158.205 5.455V4.243C158.205 1.9 156.704 0 154.853 0H150.065C148.214 0 146.713 1.9 146.713 4.243V5.455C146.713 7.798 145.212 9.698 143.361 9.698C142.423 9.698 141.575 9.208 140.967 8.422V0H136.658H132.827H128.518V8.423C127.91 9.21 127.062 9.699 126.124 9.699C124.273 9.699 122.772 7.799 122.772 5.456V4.243C122.772 1.9 121.271 0 119.42 0H114.632C112.781 0 111.28 1.9 111.28 4.243V5.455C111.28 7.798 109.779 9.698 107.928 9.698C106.077 9.698 104.576 7.798 104.576 5.455V4.243V0H101.224H96.436H93.084V4.243V5.455C93.084 7.798 91.583 9.698 89.732 9.698C87.881 9.698 86.38 7.798 86.38 5.455V4.243C86.383 1.9 84.882 0 83.031 0H78.243C76.392 0 74.891 1.9 74.891 4.243V5.455C74.891 7.798 73.39 9.698 71.539 9.698C69.688 9.698 68.187 7.798 68.187 5.455V4.243V0H64.835H60.047H56.695V4.243V5.455C56.695 7.798 55.194 9.698 53.343 9.698C51.492 9.698 49.991 7.798 49.991 5.455V4.243C49.992 1.9 48.491 0 46.64 0H41.852C40 0 38.5 1.9 38.5 4.243V5.455C38.5 7.798 36.999 9.698 35.148 9.698C33.297 9.698 31.796 7.798 31.796 5.455V4.243C31.796 1.9 30.295 0 28.444 0H23.034H20.304H0V8.14C0 9.991 1.9 11.492 4.243 11.492H5.455C7.798 11.492 9.698 12.993 9.698 14.844C9.698 16.695 7.798 18.196 5.455 18.196H4.243C1.9 18.195 0 19.696 0 21.547V26.335C0 28.186 1.9 29.687 4.243 29.687H5.455C7.798 29.687 9.698 31.188 9.698 33.039C9.698 34.89 7.798 36.391 5.455 36.391H4.243H0V39.743V44.531V47.883H4.243H5.455C7.798 47.883 9.698 49.384 9.698 51.235C9.698 53.086 7.798 54.587 5.455 54.587H4.243C1.9 54.586 0 56.087 0 57.938V62.726C0 64.577 1.9 66.078 4.243 66.078H5.455C7.798 66.078 9.698 67.579 9.698 69.43C9.698 70.368 9.208 71.216 8.422 71.824H0V76.133V79.964V84.273H8.422C9.209 84.881 9.698 85.729 9.698 86.667C9.698 88.518 7.798 90.019 5.455 90.019H4.243C1.9 90.02 0 91.52 0 93.372V98.16C0 100.011 1.9 101.512 4.243 101.512H5.455C7.798 101.512 9.698 103.013 9.698 104.864C9.698 106.715 7.798 108.216 5.455 108.216H4.243H0V111.568V116.356V119.708H4.243H5.455C7.798 119.708 9.698 121.209 9.698 123.06C9.698 124.911 7.798 126.412 5.455 126.412H4.243C1.9 126.411 0 127.911 0 129.762V134.55C0 136.401 1.9 137.902 4.243 137.902H5.455C7.798 137.902 9.698 139.403 9.698 141.254C9.698 143.105 7.798 144.606 5.455 144.606H4.243H0V147.958V152.746V156.098H4.243H5.455C7.798 156.098 9.698 157.599 9.698 159.45C9.698 161.301 7.798 162.802 5.455 162.802H4.243C1.9 162.802 0 164.302 0 166.153V170.941C0 172.792 1.9 174.293 4.243 174.293H5.455C7.798 174.293 9.698 175.794 9.698 177.645C9.698 178.583 9.208 179.431 8.422 180.039H0V184.348V188.179V192.488H8.422C9.209 193.096 9.698 193.944 9.698 194.882C9.698 196.733 7.798 198.234 5.455 198.234H4.243C1.9 198.235 0 199.736 0 201.587V206.375C0 208.226 1.9 209.727 4.243 209.727H5.455C7.798 209.727 9.698 211.228 9.698 213.079C9.698 214.017 9.208 214.865 8.422 215.473H0V219.782V223.613V227.922H8.422C9.209 228.53 9.698 229.378 9.698 230.316C9.698 232.167 7.798 233.668 5.455 233.668H4.243C1.9 233.668 0 235.169 0 237.02V241.808C0 243.659 1.9 245.16 4.243 245.16H5.455C7.798 245.16 9.698 246.661 9.698 248.512C9.698 250.363 7.798 251.864 5.455 251.864H4.243H0V255.216V260.004V263.356H4.243H5.455C7.798 263.356 9.698 264.857 9.698 266.708C9.698 268.559 7.798 270.06 5.455 270.06H4.243C1.9 270.059 0 271.56 0 273.411V278.199C0 280.05 1.9 281.551 4.243 281.551H5.455C7.798 281.551 9.698 283.052 9.698 284.903C9.698 285.841 9.208 286.689 8.422 287.297H0V291.607V295.438V299.747H8.422C9.209 300.355 9.698 301.203 9.698 302.141C9.698 303.992 7.798 305.493 5.455 305.493H4.243C1.9 305.492 0 306.993 0 308.844V313.632C0 315.483 1.9 316.984 4.243 316.984H5.455C7.798 316.984 9.698 318.485 9.698 320.336C9.698 322.187 7.798 323.688 5.455 323.688H4.243H0V327.04V331.828V335.18H4.243H5.455C7.798 335.18 9.698 336.681 9.698 338.532C9.698 340.383 7.798 341.884 5.455 341.884H4.243C1.9 341.883 0 343.384 0 345.235V350.023C0 351.874 1.9 353.375 4.243 353.375H5.455C7.798 353.375 9.698 354.876 9.698 356.727C9.698 358.578 7.798 360.079 5.455 360.079H4.243H0V363.431V368.219V371.197H6.128C8.297 371.197 10.055 372.955 10.055 375.125C10.055 377.294 8.297 379.052 6.128 379.052H1.528C0.594 379.667 0 380.591 0 381.626V384.927V386.414V390.594H6.128C8.297 390.594 10.055 392.352 10.055 394.521C10.055 396.69 8.297 398.448 6.128 398.448H0V399.82V407.96H8.14H21.547H23.034H26.335C28.186 407.96 29.687 406.06 29.687 403.717V402.505C29.687 400.505 30.781 398.832 32.253 398.384H32.734V398.281C32.835 398.269 32.936 398.261 33.04 398.261C34.891 398.261 36.392 400.161 36.392 402.504V403.716V407.959H39.744H44.532H47.884V403.716V402.504C47.884 400.16 49.385 398.261 51.236 398.261C53.087 398.261 54.588 400.161 54.588 402.504V403.716C54.588 406.059 56.089 407.959 57.94 407.959H62.728C64.579 407.959 66.08 406.059 66.08 403.716V402.504C66.08 400.16 67.581 398.261 69.432 398.261C70.37 398.261 71.218 398.751 71.826 399.537V407.959H76.136H79.967H84.276V399.537C84.884 398.75 85.732 398.261 86.67 398.261C88.521 398.261 90.022 400.161 90.022 402.504V403.716C90.022 406.059 91.523 407.959 93.374 407.959H98.162C100.013 407.959 101.514 406.059 101.514 403.716V402.504C101.514 400.16 103.015 398.261 104.866 398.261C106.717 398.261 108.218 400.161 108.218 402.504V403.716V407.959H111.57H116.358H119.71V403.716V402.504C119.71 400.16 121.211 398.261 123.062 398.261C124.913 398.261 126.414 400.161 126.414 402.504V403.716C126.414 406.059 127.915 407.959 129.766 407.959H134.554C136.405 407.959 137.906 406.059 137.906 403.716V402.504C137.906 400.16 139.407 398.261 141.258 398.261C143.109 398.261 144.61 400.161 144.61 402.504V403.716V407.959H147.962H152.75H156.102V403.716V402.504C156.102 400.16 157.603 398.261 159.454 398.261C161.305 398.261 162.806 400.161 162.806 402.504V403.716C162.806 406.059 164.307 407.959 166.158 407.959H170.946C172.797 407.959 174.298 406.059 174.298 403.716V402.504C174.298 400.16 175.799 398.261 177.65 398.261C178.588 398.261 179.436 398.751 180.044 399.537V407.959H184.353H188.184H192.493V399.537C193.102 398.75 193.949 398.261 194.887 398.261C196.738 398.261 198.239 400.161 198.239 402.504V403.716C198.239 406.059 199.74 407.959 201.591 407.959H206.379C208.23 407.959 209.731 406.059 209.731 403.716V402.504C209.731 400.16 211.232 398.261 213.083 398.261C214.021 398.261 214.869 398.751 215.477 399.537V407.959H219.787H223.618H227.927V399.537C228.535 398.75 229.383 398.261 230.321 398.261C232.172 398.261 233.673 400.161 233.673 402.504V403.716C233.673 406.059 235.174 407.959 237.025 407.959H241.813C243.664 407.959 245.165 406.059 245.165 403.716V402.504C245.165 400.16 246.666 398.261 248.517 398.261C250.368 398.261 251.869 400.161 251.869 402.504V403.716V407.959H255.221H260.009H263.361V403.716V402.504C263.361 400.16 264.862 398.261 266.713 398.261C268.564 398.261 270.065 400.161 270.065 402.504V403.716C270.065 406.059 271.566 407.959 273.417 407.959H278.205C280.056 407.959 281.557 406.059 281.557 403.716V402.504C281.557 400.16 283.058 398.261 284.909 398.261C285.847 398.261 286.695 398.751 287.303 399.537V407.959H291.612H295.443H299.752V399.537C300.36 398.75 301.208 398.261 302.146 398.261C303.997 398.261 305.498 400.161 305.498 402.504V403.716C305.498 406.059 306.999 407.959 308.85 407.959H313.638C315.489 407.959 316.99 406.059 316.99 403.716V402.504C316.99 400.16 318.491 398.261 320.342 398.261C322.193 398.261 323.694 400.161 323.694 402.504V403.716V407.959H327.046H331.834H335.186V403.716V402.504C335.186 400.16 336.687 398.261 338.538 398.261C340.389 398.261 341.89 400.161 341.89 402.504V403.716C341.89 406.059 343.391 407.959 345.242 407.959H350.03C351.881 407.959 353.382 406.059 353.382 403.716V402.504C353.382 400.16 354.883 398.261 356.734 398.261C358.585 398.261 360.086 400.161 360.086 402.504V403.716V407.959H363.438H368.226H371.578V403.716V402.504C371.578 400.16 373.079 398.261 374.93 398.261C376.781 398.261 378.282 400.161 378.282 402.504V403.716C378.282 406.059 379.783 407.959 381.634 407.959H386.422C388.273 407.959 389.774 406.059 389.774 403.716V402.504C389.774 400.16 391.275 398.261 393.126 398.261C394.977 398.261 396.478 400.161 396.478 402.504V403.716C396.478 406.059 397.979 407.959 399.83 407.959H405.24H407.97H428.274V399.822H428.266Z" fill="black"/>
</g>
<defs>
<clipPath id="clip0_2240_23595">
<rect width="428.266" height="407.962" fill="white"/>
</clipPath>
</defs>
</svg>
